<?xml version="1.0" encoding="UTF-8" standalone="no"?>
<!-- Created with Inkscape (http://www.inkscape.org/) -->

<svg
   width="7.5981579mm"
   height="7.6689439mm"
   viewBox="0 0 7.5981576 7.6689435"
   version="1.1"
   id="svg5"
   xml:space="preserve"
   inkscape:version="1.2.2 (b0a8486541, 2022-12-01)"
   sodipodi:docname="movicap.svg"
   inkscape:export-filename="movicap.png"
   inkscape:export-xdpi="338.37341"
   inkscape:export-ydpi="338.37341"
   xmlns:inkscape="http://www.inkscape.org/namespaces/inkscape"
   xmlns:sodipodi="http://sodipodi.sourceforge.net/DTD/sodipodi-0.dtd"
   xmlns="http://www.w3.org/2000/svg"
   xmlns:svg="http://www.w3.org/2000/svg"><sodipodi:namedview
     id="namedview7"
     pagecolor="#ffffff"
     bordercolor="#000000"
     borderopacity="0.25"
     inkscape:showpageshadow="2"
     inkscape:pageopacity="0.0"
     inkscape:pagecheckerboard="0"
     inkscape:deskcolor="#d1d1d1"
     inkscape:document-units="mm"
     showgrid="false"
     inkscape:zoom="13.455443"
     inkscape:cx="17.910967"
     inkscape:cy="23.039003"
     inkscape:window-width="1240"
     inkscape:window-height="992"
     inkscape:window-x="1320"
     inkscape:window-y="0"
     inkscape:window-maximized="1"
     inkscape:current-layer="layer1"
     showguides="true" /><defs
     id="defs2" /><g
     inkscape:label="Capa 1"
     inkscape:groupmode="layer"
     id="layer1"
     transform="translate(-80.092197,-123.76179)"><g
       style="fill:currentColor"
       id="g216"
       transform="matrix(0.20969747,0,0,0.20969747,84.365523,123.76179)"><path
         d="m 12.166,8.94 c -0.524,1.062 -1.234,2.12 -1.96,3.07 A 32,32 0 0 1 8,14.58 32,32 0 0 1 5.794,12.01 C 5.068,11.06 4.358,10.002 3.834,8.94 3.304,7.867 3,6.862 3,6 a 5,5 0 0 1 10,0 c 0,0.862 -0.305,1.867 -0.834,2.94 M 8,16 c 0,0 6,-5.686 6,-10 A 6,6 0 0 0 2,6 c 0,4.314 6,10 6,10"
         id="path204" /><path
         d="M 8,8 A 2,2 0 1 1 8,4 2,2 0 0 1 8,8 M 8,9 A 3,3 0 1 0 8,3 3,3 0 0 0 8,9"
         id="path206" /></g><g
       style="fill:currentColor"
       id="g388"
       transform="matrix(0.20590649,0,0,0.20590649,84.395439,128.1059)"><path
         d="m 6.002,5.5 a 1.5,1.5 0 1 1 -3,0 1.5,1.5 0 0 1 3,0"
         id="path376" /><path
         d="m 2.002,1 a 2,2 0 0 0 -2,2 v 10 a 2,2 0 0 0 2,2 h 12 a 2,2 0 0 0 2,-2 V 3 a 2,2 0 0 0 -2,-2 z m 12,1 a 1,1 0 0 1 1,1 V 9.5 L 11.225,7.553 a 0.5,0.5 0 0 0 -0.577,0.093 l -3.71,3.71 -2.66,-1.772 A 0.5,0.5 0 0 0 3.648,9.646 L 1.002,12 V 3 a 1,1 0 0 1 1,-1 z"
         id="path378" /></g><g
       style="fill:currentColor"
       id="g399"
       transform="matrix(0.47930899,0,0,0.47930899,80.092197,123.76179)"><path
         d="m 2,10 h 3 c 0.5522847,0 1,0.447715 1,1 v 3 c 0,0.552285 -0.4477153,1 -1,1 H 2 C 1.4477153,15 1,14.552285 1,14 V 11 C 1,10.447715 1.4477153,10 2,10 M 2,9 C 0.8954305,9 0,9.8954305 0,11 v 3 c 0,1.104569 0.8954305,2 2,2 h 3 c 1.1045695,0 2,-0.895431 2,-2 V 11 C 7,9.8954305 6.1045695,9 5,9 Z M 0,2 C 0,0.8954305 0.8954305,0 2,0 H 5 C 6.1045695,0 7,0.8954305 7,2 V 5 C 7,6.1045695 6.1045695,7 5,7 H 2 C 0.8954305,7 0,6.1045695 0,5 Z M 5.354,2.854 C 5.8259998,2.3820002 5.1179998,1.6740002 4.646,2.146 L 3,3.793 2.354,3.146 C 1.8820002,2.6740002 1.1740002,3.3820002 1.646,3.854 l 1,1 c 0.1953639,0.1958584 0.5126361,0.1958584 0.708,0 z"
         id="path390"
         sodipodi:nodetypes="cssssssscssssssssssssssssssscccsccs" /></g></g></svg>
