<?xml version="1.0" encoding="UTF-8" standalone="no"?>
<!-- Created with Inkscape (http://www.inkscape.org/) -->

<svg
   width="15.013mm"
   height="10.506mm"
   viewBox="0 0 15.012999 10.505999"
   version="1.1"
   id="svg5"
   xml:space="preserve"
   inkscape:version="1.2.2 (b0a8486541, 2022-12-01)"
   sodipodi:docname="movicap.svg"
   inkscape:export-filename="movicap.png"
   inkscape:export-xdpi="338.37341"
   inkscape:export-ydpi="338.37341"
   xmlns:inkscape="http://www.inkscape.org/namespaces/inkscape"
   xmlns:sodipodi="http://sodipodi.sourceforge.net/DTD/sodipodi-0.dtd"
   xmlns="http://www.w3.org/2000/svg"
   xmlns:svg="http://www.w3.org/2000/svg"><sodipodi:namedview
     id="namedview7"
     pagecolor="#ffffff"
     bordercolor="#000000"
     borderopacity="0.25"
     inkscape:showpageshadow="2"
     inkscape:pageopacity="0.0"
     inkscape:pagecheckerboard="0"
     inkscape:deskcolor="#d1d1d1"
     inkscape:document-units="mm"
     showgrid="false"
     inkscape:zoom="3.3638608"
     inkscape:cx="8.3237689"
     inkscape:cy="99.587949"
     inkscape:window-width="1240"
     inkscape:window-height="992"
     inkscape:window-x="1320"
     inkscape:window-y="0"
     inkscape:window-maximized="1"
     inkscape:current-layer="layer1"
     showguides="true" /><defs
     id="defs2" /><g
     inkscape:label="Capa 1"
     inkscape:groupmode="layer"
     id="layer1"
     transform="translate(-79.092315,-121.92475)"><g
       id="g466"
       transform="translate(0.99988227,1.0000179)"><g
         style="fill:currentColor"
         id="g216"
         transform="matrix(0.26458333,0,0,0.26458333,88.08987,121.92475)"><path
           d="m 12.166,8.94 c -0.524,1.062 -1.234,2.12 -1.96,3.07 A 32,32 0 0 1 8,14.58 32,32 0 0 1 5.794,12.01 C 5.068,11.06 4.358,10.002 3.834,8.94 3.304,7.867 3,6.862 3,6 a 5,5 0 0 1 10,0 c 0,0.862 -0.305,1.867 -0.834,2.94 M 8,16 c 0,0 6,-5.686 6,-10 A 6,6 0 0 0 2,6 c 0,4.314 6,10 6,10"
           id="path204" /><path
           d="M 8,8 A 2,2 0 1 1 8,4 2,2 0 0 1 8,8 M 8,9 A 3,3 0 1 0 8,3 3,3 0 0 0 8,9"
           id="path206" /></g><g
         style="fill:currentColor"
         id="g388"
         transform="matrix(0.23737664,0,0,0.23737664,88.307049,126.87006)"><path
           d="m 6.002,5.5 a 1.5,1.5 0 1 1 -3,0 1.5,1.5 0 0 1 3,0"
           id="path376" /><path
           d="m 2.002,1 a 2,2 0 0 0 -2,2 v 10 a 2,2 0 0 0 2,2 h 12 a 2,2 0 0 0 2,-2 V 3 a 2,2 0 0 0 -2,-2 z m 12,1 a 1,1 0 0 1 1,1 V 9.5 L 11.225,7.553 a 0.5,0.5 0 0 0 -0.577,0.093 l -3.71,3.71 -2.66,-1.772 A 0.5,0.5 0 0 0 3.648,9.646 L 1.002,12 V 3 a 1,1 0 0 1 1,-1 z"
           id="path378" /></g><g
         style="fill:currentColor"
         id="g399"
         transform="matrix(0.47930899,0,0,0.47930899,79.092315,122.76177)"><path
           d="m 2,10 h 3 a 1,1 0 0 1 1,1 v 3 A 1,1 0 0 1 5,15 H 2 A 1,1 0 0 1 1,14 v -3 a 1,1 0 0 1 1,-1 m 9,-9 h 3 a 1,1 0 0 1 1,1 V 5 A 1,1 0 0 1 14,6 H 11 A 1,1 0 0 1 10,5 V 2 a 1,1 0 0 1 1,-1 m 0,9 a 1,1 0 0 0 -1,1 v 3 a 1,1 0 0 0 1,1 h 3 a 1,1 0 0 0 1,-1 V 11 A 1,1 0 0 0 14,10 Z M 11,0 A 2,2 0 0 0 9,2 v 3 a 2,2 0 0 0 2,2 h 3 A 2,2 0 0 0 16,5 V 2 A 2,2 0 0 0 14,0 Z M 2,9 a 2,2 0 0 0 -2,2 v 3 a 2,2 0 0 0 2,2 H 5 A 2,2 0 0 0 7,14 V 11 A 2,2 0 0 0 5,9 Z m 7,2 a 2,2 0 0 1 2,-2 h 3 a 2,2 0 0 1 2,2 v 3 a 2,2 0 0 1 -2,2 H 11 A 2,2 0 0 1 9,14 Z M 0,2 A 2,2 0 0 1 2,0 H 5 A 2,2 0 0 1 7,2 V 5 A 2,2 0 0 1 5,7 H 2 A 2,2 0 0 1 0,5 Z M 5.354,2.854 A 0.5006316,0.5006316 0 1 0 4.646,2.146 L 3,3.793 2.354,3.146 A 0.5006316,0.5006316 0 1 0 1.646,3.854 l 1,1 a 0.5,0.5 0 0 0 0.708,0 z"
           id="path390" /></g></g></g></svg>
